<?xml version="1.0" standalone="no"?>
<!DOCTYPE svg PUBLIC "-//W3C//DTD SVG 20010904//EN"
 "http://www.w3.org/TR/2001/REC-SVG-20010904/DTD/svg10.dtd">
<svg version="1.0" xmlns="http://www.w3.org/2000/svg"
 width="1024.000000pt" height="1024.000000pt" viewBox="0 0 1024.000000 1024.000000"
 preserveAspectRatio="xMidYMid meet">

<g transform="translate(0.000000,1024.000000) scale(0.100000,-0.100000)"
fill="#000000" stroke="none">
<path d="M4865 10001 c-84 -21 -176 -95 -215 -175 -25 -52 -46 -167 -59 -321
-6 -66 -15 -158 -20 -205 -6 -47 -15 -175 -21 -285 -14 -268 -36 -505 -66
-708 -13 -93 -24 -182 -24 -198 0 -28 -2 -29 -47 -29 -90 0 -93 3 -93 79 0 36
7 129 15 206 49 447 66 773 45 870 -30 147 -124 268 -234 305 -58 19 -181 9
-235 -19 -98 -51 -177 -166 -207 -299 -30 -136 -95 -575 -124 -842 -17 -151
-32 -280 -34 -286 -3 -8 -45 -11 -133 -10 l-128 1 -7 65 c-15 143 -84 254
-188 298 -142 62 -284 16 -343 -111 -14 -28 -41 -98 -60 -154 -20 -56 -45
-124 -57 -151 -21 -48 -24 -50 -83 -67 -140 -39 -325 -160 -449 -294 -163
-175 -252 -392 -265 -647 l-6 -121 24 -7 c13 -5 139 -10 279 -13 140 -3 257
-7 259 -9 17 -16 -47 -22 -288 -27 -150 -3 -274 -7 -275 -9 0 -2 0 -208 2
-459 l3 -456 181 -6 c100 -4 291 -7 425 -7 209 0 243 -2 243 -15 0 -13 -54
-15 -426 -15 l-426 0 6 -432 c3 -238 6 -446 6 -461 0 -27 3 -28 38 -27 20 1
46 1 57 0 17 -2 16 -3 -5 -10 -14 -4 184 -7 440 -7 l465 2 -3 28 c-4 39 5 34
17 -10 8 -29 7 -40 -4 -53 -12 -13 -12 -83 -4 -470 5 -250 11 -467 13 -481 1
-14 0 -45 -4 -70 -4 -33 -8 -10 -13 91 -19 343 -27 550 -27 731 l0 196 -383 6
c-210 4 -429 4 -485 0 l-102 -6 -2 -926 c-4 -1206 -6 -1143 37 -1272 l34 -104
-20 -16 c-14 -10 -20 -24 -17 -40 3 -21 8 -24 43 -22 38 1 43 -2 67 -40 30
-46 57 -77 158 -182 72 -74 94 -118 66 -128 -19 -8 -21 -37 -3 -59 16 -22 68
-12 75 14 6 23 20 19 119 -28 39 -19 75 -34 79 -34 3 0 32 -13 63 -28 31 -16
79 -37 107 -47 50 -17 51 -18 50 -59 -1 -37 1 -41 26 -44 20 -2 28 2 33 20 4
13 13 26 18 30 12 7 69 -1 77 -11 9 -11 98 -31 136 -31 19 0 47 -6 62 -14 44
-22 104 -28 337 -35 l220 -6 5 -513 5 -514 24 -19 c30 -25 44 -24 78 5 l28 24
-4 506 -3 506 36 0 c31 0 40 -5 54 -31 9 -17 28 -45 41 -61 23 -29 28 -30 87
-26 71 4 122 36 144 87 l12 31 213 0 212 0 18 -41 c23 -50 103 -124 153 -140
20 -6 42 -16 47 -21 6 -5 12 -173 15 -443 4 -325 8 -437 17 -446 9 -9 23 -10
50 -3 l38 9 5 445 5 444 49 18 c59 21 131 87 157 144 l19 42 180 0 179 0 36
-35 c48 -46 80 -40 151 27 62 59 100 66 138 25 13 -14 30 -25 39 -25 9 0 17
-12 20 -32 3 -18 6 -244 7 -503 2 -511 2 -515 56 -515 38 0 61 16 73 51 8 23
9 172 4 514 -5 397 -4 483 7 490 7 5 94 10 193 13 l180 5 -5 411 c-2 226 -1
380 3 341 3 -38 7 -215 8 -392 0 -181 5 -333 11 -347 l10 -26 420 0 c413 0
421 0 410 19 -5 11 -10 28 -10 38 0 27 37 63 65 63 25 0 75 -51 75 -77 0 -10
6 -13 18 -8 20 8 109 25 128 25 8 0 14 -7 14 -15 0 -23 38 -39 58 -23 24 18
32 31 31 48 0 10 -5 8 -16 -7 -17 -26 -35 -31 -27 -8 4 10 0 15 -14 15 -30 0
-36 16 -13 39 17 17 25 19 47 11 49 -19 103 3 240 98 19 13 19 13 0 7 -23 -7
-66 20 -66 40 0 23 38 55 65 55 34 0 55 -42 36 -73 -12 -19 -10 -19 15 4 16
14 45 35 64 47 19 11 75 62 124 111 49 50 92 91 95 91 3 0 11 -10 16 -22 7
-16 19 -23 39 -23 36 0 56 27 40 53 -14 21 -54 28 -65 10 -5 -7 -9 -8 -9 -2 0
6 19 37 42 69 36 50 41 65 40 106 0 27 3 51 9 54 5 4 9 -3 9 -15 0 -38 18 -11
49 76 31 84 40 123 22 96 -5 -8 -22 -12 -42 -10 -26 2 -35 8 -37 25 -8 59 55
87 81 37 l14 -26 11 28 c18 49 34 195 27 255 -4 32 -4 76 0 97 6 35 9 38 31
34 34 -6 30 14 -7 34 l-32 16 5 244 4 244 -65 2 -66 2 63 3 62 4 2 372 c1 205
1 385 1 401 -1 19 2 25 7 16 10 -17 18 -12 130 89 120 108 749 735 772 770 22
33 23 51 2 51 -9 0 -164 -147 -343 -327 -180 -181 -382 -380 -448 -443 l-120
-115 -2 71 -1 72 451 448 c253 252 457 463 465 481 16 38 18 53 5 53 -5 0
-215 -204 -465 -453 l-456 -453 0 68 0 68 -487 0 c-391 -1 -489 2 -491 12 -2
11 93 13 490 13 l493 0 380 375 c209 206 413 408 453 450 77 79 100 116 83
133 -7 7 -55 -32 -148 -123 -183 -178 -622 -619 -700 -703 -34 -37 -65 -67
-68 -67 -3 0 -5 43 -5 96 0 59 4 93 10 89 5 -3 123 106 262 242 140 136 342
333 450 437 109 103 200 197 203 208 4 10 1 26 -6 34 -10 12 -26 1 -103 -73
-157 -153 -481 -472 -644 -635 -86 -87 -160 -158 -164 -158 -5 0 -7 48 -6 108
1 59 3 97 6 85 2 -13 8 -23 13 -23 9 0 757 728 856 833 49 52 65 88 45 101 -8
5 -530 -498 -791 -761 -125 -126 -131 -128 -131 -31 0 53 3 60 32 85 18 16 89
84 158 153 69 69 261 260 427 424 167 165 305 308 309 319 3 10 1 24 -5 30
-13 13 -53 -25 -553 -522 -191 -189 -351 -342 -354 -338 -3 3 -9 35 -11 71
l-6 65 79 73 c177 162 845 835 851 856 3 13 1 28 -5 34 -8 8 -57 -36 -169
-148 -87 -88 -289 -287 -448 -444 -318 -313 -301 -303 -304 -191 l-1 43 461
461 c396 396 460 464 457 486 -2 14 -7 25 -12 25 -4 -1 -189 -181 -410 -401
-220 -219 -423 -419 -450 -443 l-49 -45 5 84 c5 78 7 86 34 109 16 13 221 216
457 450 347 346 427 431 427 452 0 15 -2 29 -4 31 -3 3 -205 -195 -451 -438
-245 -244 -450 -443 -455 -443 -6 0 -10 30 -10 68 l0 68 460 460 c384 383 460
463 460 486 0 16 -5 28 -10 28 -10 0 -355 -342 -672 -665 -132 -134 -225 -225
-232 -225 -2 0 -1 39 1 87 4 79 7 88 31 107 14 11 219 213 454 447 349 347
428 431 428 453 0 14 -5 26 -10 26 -6 0 -202 -191 -435 -424 -233 -234 -433
-429 -443 -435 -11 -6 -126 -14 -261 -17 -221 -7 -241 -6 -241 9 0 15 14 17
113 17 61 0 169 3 238 7 l126 6 2 54 2 54 454 454 c403 401 455 457 455 484 0
17 -4 31 -9 31 -5 0 -209 -202 -454 -450 l-446 -450 -10 38 c-25 99 -25 99 15
134 21 18 232 228 471 467 368 369 433 438 433 462 0 16 -3 29 -7 29 -20 0
-933 -921 -933 -941 -1 -8 -19 24 -40 69 -38 80 -51 114 -31 83 8 -12 17 -10
53 15 24 16 249 236 500 488 376 377 458 464 458 486 0 15 -2 29 -5 32 -3 3
-230 -219 -505 -493 -275 -275 -503 -499 -508 -499 -5 0 -19 19 -32 43 -12 23
-30 51 -39 61 -9 11 -10 16 -3 12 7 -4 26 2 45 15 52 36 1057 1042 1057 1059
-1 53 -30 28 -568 -507 l-551 -548 -40 46 -41 47 25 16 c14 9 74 65 133 124
59 59 318 316 575 571 397 394 468 468 465 489 -2 14 -7 27 -13 28 -5 2 -282
-268 -615 -601 l-604 -604 -43 35 c-24 20 -43 37 -43 40 0 3 55 58 122 122 67
64 352 345 632 624 403 399 507 508 493 513 -9 4 -28 4 -41 1 -14 -3 -284
-267 -633 -616 -335 -335 -613 -610 -617 -610 -5 0 -21 11 -37 24 -15 13 -34
26 -41 28 -7 3 244 262 557 576 314 315 571 576 573 581 2 5 -9 12 -23 15 -23
6 -40 -8 -161 -131 -74 -76 -329 -332 -566 -570 -276 -278 -427 -436 -422
-444 8 -14 -39 13 -78 45 l-28 22 525 528 c289 290 525 532 525 537 0 15 -51
23 -60 9 -4 -6 -232 -237 -507 -513 -275 -276 -507 -513 -516 -526 l-15 -23
-61 23 -61 24 118 115 c141 138 830 836 856 867 17 21 17 22 -3 33 -19 10 -49
-18 -334 -302 -172 -172 -396 -398 -497 -501 -175 -178 -187 -188 -215 -182
-16 3 -45 8 -62 12 -18 3 -33 9 -33 13 0 4 24 28 53 53 28 25 120 114 202 198
83 85 263 269 401 409 138 140 256 265 262 276 10 18 8 23 -8 27 -16 4 -79
-54 -298 -276 -152 -154 -361 -365 -464 -469 -168 -168 -188 -192 -188 -221 0
-43 -35 -77 -77 -77 -41 0 -87 52 -80 89 l6 26 -384 -2 -383 -2 -6 22 c-3 12
-6 45 -6 73 l0 52 380 379 c209 209 380 385 380 391 0 6 -9 14 -21 17 -17 6
-34 -8 -92 -72 -69 -76 -211 -218 -495 -497 -78 -76 -142 -143 -143 -150 -3
-30 -17 46 -18 94 l-1 55 230 230 c126 127 248 251 270 277 38 45 39 48 21 58
-17 9 -26 4 -61 -33 -22 -24 -134 -140 -248 -256 l-209 -212 -6 77 -6 77 129
136 c134 143 180 195 180 205 0 3 -10 6 -22 6 -16 0 -60 -39 -147 -131 -68
-71 -126 -128 -128 -125 -3 2 -11 85 -19 183 -7 98 -16 198 -19 223 -22 155
-37 250 -46 285 -32 117 -131 240 -218 270 -106 36 -235 8 -308 -67 -70 -73
-103 -158 -122 -318 -7 -52 -16 -129 -21 -170 -9 -67 -28 -325 -60 -830 -7
-96 -15 -193 -19 -215 l-7 -40 -114 0 -115 0 -7 120 c-3 66 -11 197 -17 292
-6 95 -11 266 -11 380 0 114 -5 260 -10 323 -6 63 -12 144 -15 180 -13 158
-37 333 -51 372 -62 176 -228 285 -379 249z m122 -150 c68 -31 73 -45 64 -203
-6 -126 -9 -139 -31 -163 -48 -51 -145 -57 -194 -12 -23 21 -24 30 -29 164
l-6 143 27 31 c27 33 73 58 107 58 11 0 39 -8 62 -18z m1124 -287 l31 -29 -4
-130 c-4 -152 -14 -177 -78 -196 -32 -10 -46 -9 -76 2 -61 23 -73 50 -80 170
-9 139 -2 174 39 200 48 30 127 22 168 -17z m-945 -296 l7 -158 -26 0 c-19 0
-28 7 -36 30 -28 81 -112 140 -200 140 -75 0 -164 -61 -185 -128 -4 -12 -14
-22 -23 -22 -16 0 -16 51 4 264 6 66 6 67 18 39 38 -89 177 -119 301 -64 59
26 88 53 105 94 l13 31 8 -34 c4 -19 10 -106 14 -192z m-1049 132 c18 -10 39
-30 48 -44 15 -23 16 -30 1 -88 -8 -35 -20 -92 -25 -128 -8 -50 -16 -70 -36
-87 -49 -43 -121 -42 -169 2 -25 23 -26 27 -26 145 0 90 4 129 15 151 34 64
128 89 192 49z m1771 -264 c42 -23 152 -32 210 -17 27 8 60 29 89 56 26 25 48
44 49 42 3 -3 24 -252 24 -288 0 -46 -25 -35 -58 25 -71 124 -237 142 -327 34
-15 -18 -32 -45 -37 -60 -10 -28 -41 -38 -53 -18 -6 9 9 213 21 293 l6 37 21
-42 c12 -24 37 -51 55 -62z m-919 3 c35 -33 43 -65 27 -104 -17 -39 -42 -55
-86 -55 -37 0 -90 47 -90 79 0 78 96 129 149 80z m-722 -156 c-4 -76 -10 -173
-13 -215 -7 -77 -7 -78 -35 -78 -22 0 -29 6 -39 34 -15 47 -73 103 -118 115
-112 32 -209 -15 -242 -115 -8 -24 -18 -34 -32 -34 -18 0 -20 4 -14 38 3 20
16 105 28 189 12 83 26 149 30 147 4 -3 8 -17 8 -31 0 -41 59 -89 125 -103
135 -28 274 45 291 152 13 76 17 35 11 -99z m490 -52 c21 -37 73 -71 107 -71
15 0 16 -26 11 -292 -4 -161 -8 -298 -10 -304 -2 -6 -19 -14 -39 -18 -44 -8
-118 -76 -149 -136 -15 -29 -31 -46 -45 -48 -12 -2 -22 1 -22 7 0 6 13 115 29
243 17 128 35 314 41 413 6 99 13 195 16 213 7 44 33 42 61 -7z m441 29 c9 0
12 -49 12 -212 0 -204 13 -503 26 -635 l6 -63 -28 0 c-40 0 -47 7 -77 66 -28
56 -83 108 -132 125 l-31 12 1 101 c1 55 2 192 3 304 2 196 3 202 22 202 41 0
89 29 116 70 22 32 32 40 48 36 12 -3 27 -6 34 -6z m919 -59 c31 -46 29 -77
-6 -112 -41 -41 -90 -40 -125 2 -37 44 -35 90 5 124 45 38 95 32 126 -14z
m-236 -187 c14 -23 38 -44 66 -56 31 -14 43 -25 44 -41 0 -12 2 -158 2 -324 2
-263 0 -303 -13 -303 -8 0 -38 -11 -67 -24 -55 -26 -102 -80 -125 -142 -12
-35 -28 -41 -74 -28 l-21 5 19 97 c43 226 57 363 74 715 l7 137 33 0 c26 0 36
-6 55 -36z m421 -189 c3 -121 11 -294 17 -385 6 -91 11 -207 11 -257 l0 -93
-33 0 c-31 0 -35 4 -46 41 -16 52 -94 132 -145 149 -21 7 -34 15 -28 19 7 4
14 116 18 323 l7 317 31 7 c36 7 72 37 93 77 11 22 20 28 41 25 l27 -3 7 -220z
m-2239 174 c15 -16 27 -38 27 -49 0 -28 -50 -78 -86 -85 -27 -5 -35 -1 -63 30
-17 20 -31 42 -31 51 0 23 30 63 59 79 33 18 59 11 94 -26z m-243 -163 c0 -26
56 -76 85 -76 l28 0 -7 -102 c-3 -57 -9 -199 -13 -315 -6 -207 -7 -213 -27
-213 -68 -1 -158 -83 -172 -156 -6 -31 -10 -34 -40 -34 -40 0 -40 0 -19 120
26 149 65 487 82 708 l6 82 38 0 c27 0 39 -4 39 -14z m414 5 c3 -5 -1 -62 -10
-126 -18 -137 -22 -404 -11 -628 l8 -159 -21 4 c-17 2 -28 17 -42 55 -21 57
-96 133 -131 133 -20 0 -20 4 -13 213 3 116 9 258 13 315 l6 102 33 0 c36 0
98 46 109 81 7 20 49 27 59 10z m-1252 -251 c17 -23 17 -33 7 -105 -17 -128
-41 -158 -141 -179 -27 -6 -28 -5 -28 32 0 20 9 70 20 111 44 158 93 206 142
141z m164 -98 c21 -96 15 -202 -20 -339 -39 -154 -41 -156 -96 -149 -25 3 -46
10 -48 15 -15 44 -53 100 -82 119 -30 21 -45 23 -108 20 l-73 -3 7 30 c3 16 8
31 9 33 1 2 22 -2 46 -8 56 -14 158 1 198 29 86 61 126 152 126 284 0 95 15
84 41 -31z m1829 -82 c109 -67 66 -240 -59 -240 -25 0 -56 4 -70 10 -38 14
-66 66 -66 124 0 44 4 53 40 88 34 31 48 38 82 38 23 0 54 -9 73 -20z m-518
-177 c-3 -10 -5 -4 -5 12 0 17 2 24 5 18 2 -7 2 -21 0 -30z m229 -83 c34 -45
69 -74 129 -106 20 -11 20 -20 17 -395 -1 -211 -5 -477 -8 -591 l-6 -208 -27
0 c-33 0 -107 -46 -143 -88 -103 -123 -116 -308 -30 -435 31 -46 109 -105 151
-113 l31 -6 0 -1164 c0 -731 -4 -1172 -10 -1188 -7 -19 -17 -26 -37 -26 -16
-1 -45 -7 -65 -14 -33 -12 -39 -11 -52 3 -21 23 -53 137 -165 586 -112 445
-171 709 -266 1175 -35 173 -71 347 -79 385 -8 39 -17 91 -21 117 -6 46 -6 46
29 58 52 17 123 100 142 168 20 67 13 154 -15 210 -28 54 -101 118 -153 133
-23 7 -46 15 -51 19 -9 8 -22 217 -38 632 -13 336 -12 348 32 348 24 0 96 64
105 93 9 28 22 37 57 37 21 0 27 -5 27 -22 0 -194 40 -653 76 -867 30 -185 45
-225 85 -241 27 -11 32 -10 55 11 80 75 129 454 139 1094 7 401 10 445 35 445
10 0 35 -22 56 -50z m2628 34 c11 -30 0 -214 -13 -214 -3 0 -7 52 -9 115 -2
105 6 141 22 99z m-2081 -141 c-2 -82 -5 -168 -7 -193 -1 -25 1 -227 6 -449 7
-353 11 -416 28 -490 29 -122 62 -189 96 -197 23 -6 32 -2 56 27 95 112 166
396 223 893 13 116 27 232 31 258 l6 46 52 4 c28 2 53 0 54 -4 17 -39 87 -108
126 -124 34 -14 46 -25 46 -40 0 -33 -96 -593 -135 -789 -34 -173 -43 -194
-75 -195 -32 0 -117 -49 -148 -84 -48 -55 -84 -132 -89 -197 -11 -122 60 -260
156 -304 23 -10 41 -25 41 -34 0 -9 -16 -83 -36 -166 -20 -82 -44 -186 -55
-230 -35 -149 -158 -607 -279 -1040 -32 -115 -79 -286 -105 -380 -26 -93 -59
-213 -75 -265 -15 -52 -41 -139 -56 -193 -26 -89 -30 -98 -49 -92 -11 4 -47
14 -79 24 l-59 16 6 614 c4 338 7 865 7 1172 l0 557 51 17 c73 24 167 116 205
197 36 81 39 188 7 260 -40 88 -158 188 -223 188 l-21 0 7 373 c3 204 9 471
13 591 l6 219 47 14 c34 10 58 27 92 64 25 28 46 57 46 65 0 10 13 14 43 14
l43 0 -3 -147z m847 105 c77 -40 91 -133 30 -201 -26 -29 -34 -32 -85 -32 -53
0 -59 3 -86 35 -55 65 -46 153 20 197 43 29 65 29 121 1z m-3223 -113 c13 -9
25 -32 29 -52 6 -33 3 -40 -25 -65 -41 -37 -73 -36 -105 3 -34 40 -33 64 3
100 33 32 65 37 98 14z m1170 -69 c27 -29 33 -44 33 -79 0 -72 -41 -116 -108
-117 -54 0 -97 22 -117 60 -30 59 -14 118 45 158 50 34 104 26 147 -22z m3315
-38 c10 -13 18 -37 18 -54 0 -44 -21 -68 -64 -69 -20 -1 -34 1 -31 3 3 3 -2
13 -11 23 -12 13 -15 28 -10 51 3 18 7 38 8 45 1 7 6 11 12 10 6 -1 10 3 9 9
-4 20 50 6 69 -18z m-1028 6 c9 -3 14 -9 12 -13 -4 -7 -50 -364 -96 -751 -36
-301 -38 -454 -11 -666 11 -82 22 -243 25 -359 4 -115 9 -291 12 -390 8 -230
-2 -287 -84 -451 -32 -66 -78 -146 -100 -178 -48 -68 -53 -103 -19 -142 l23
-27 37 33 c42 37 203 276 221 329 7 19 15 30 18 25 14 -22 38 -169 38 -234 0
-62 3 -74 25 -95 30 -31 56 -32 81 -4 27 30 34 241 10 323 -18 61 -12 90 23
101 10 3 48 36 85 74 80 84 127 176 156 308 21 97 54 408 45 422 -6 10 196 25
264 19 44 -3 45 -3 63 -59 12 -35 35 -74 60 -100 l40 -44 -12 -50 c-12 -46
-151 -433 -198 -550 l-20 -50 -63 -1 c-159 -3 -273 -117 -273 -275 0 -36 6
-85 14 -108 10 -31 11 -48 3 -59 -15 -25 -431 -392 -613 -542 -37 -30 -130
-109 -206 -175 -170 -147 -445 -375 -577 -478 -83 -65 -101 -75 -118 -67 -10
6 -19 14 -19 18 0 5 16 54 35 111 33 99 71 230 190 661 31 113 65 232 75 265
10 33 37 130 60 215 23 85 73 272 111 415 86 321 191 734 190 756 0 11 19 21
61 33 51 14 70 27 122 79 87 87 101 120 101 237 0 80 -4 102 -23 139 -30 56
-103 126 -147 143 -19 6 -35 14 -35 18 0 3 18 102 40 220 42 222 116 642 127
718 6 41 9 45 57 66 55 24 112 81 122 121 6 25 33 33 68 19z m-3596 -145 c23
-10 31 -22 36 -49 8 -46 7 -299 0 -328 -4 -13 -23 -31 -44 -42 -50 -25 -81
-71 -88 -126 -4 -37 -8 -44 -26 -44 -48 0 -48 3 -11 256 19 131 42 274 50 318
8 43 15 81 15 85 0 3 9 -8 19 -25 11 -17 33 -37 49 -45z m307 55 c19 -5 20
-12 16 -147 -3 -154 9 -280 40 -395 23 -88 24 -82 -3 -82 -18 0 -27 11 -42 45
-22 55 -95 122 -142 131 l-34 6 0 188 0 188 34 12 c18 6 44 22 56 35 24 25 39
29 75 19z m695 -84 c0 -32 113 -120 154 -120 9 0 17 -13 20 -32 5 -29 17 -312
33 -783 l6 -160 -42 -19 c-84 -37 -150 -170 -138 -282 12 -115 90 -218 186
-244 l37 -10 33 -177 c112 -610 298 -1415 457 -1985 55 -196 62 -250 34 -256
-25 -4 -137 95 -222 197 -84 101 -286 400 -380 561 -121 208 -325 622 -398
805 -17 42 -52 124 -79 183 -27 59 -53 124 -59 145 -10 37 -10 38 40 85 69 64
88 108 88 206 0 100 -14 146 -61 200 -41 46 -125 89 -196 101 -32 5 -43 12
-52 33 -47 120 -241 680 -241 697 0 8 22 36 50 64 27 27 52 61 56 75 5 22 12
26 45 26 34 0 39 -3 45 -27 25 -111 176 -544 234 -669 55 -120 141 -205 190
-189 43 14 88 172 110 385 10 107 0 588 -20 940 -5 91 -9 186 -10 213 l0 47
40 0 c22 0 40 -4 40 -10z m3598 -189 c-1 -72 -4 -134 -8 -136 -10 -6 -22 233
-14 274 13 63 22 3 22 -138z m-2868 92 c0 -21 -3 -24 -9 -14 -5 8 -7 20 -4 28
8 21 13 15 13 -14z m-13 -65 c-3 -8 -6 -5 -6 6 -1 11 2 17 5 13 3 -3 4 -12 1
-19z m3 -38 c0 -11 -2 -20 -4 -20 -2 0 -6 9 -9 20 -3 11 -1 20 4 20 5 0 9 -9
9 -20z m-3 -97 c-2 -16 -4 -5 -4 22 0 28 2 40 4 28 2 -13 2 -35 0 -50z m-4
-159 c-6 -90 -8 -102 -14 -69 -11 58 -11 123 1 130 6 3 10 18 10 32 0 15 2 24
5 21 3 -2 2 -54 -2 -114z m3252 84 c34 -15 32 -22 -16 -43 -22 -10 -60 -40
-83 -66 -68 -75 -147 -275 -162 -410 -6 -51 -3 -66 20 -114 22 -44 41 -65 94
-102 37 -25 71 -50 76 -54 4 -4 -2 -37 -14 -74 -21 -63 -23 -65 -37 -46 -18
26 -96 67 -145 76 -84 16 -212 -56 -252 -140 l-17 -35 -87 0 c-48 0 -118 3
-156 7 l-68 6 6 49 c10 75 81 254 148 375 155 280 301 449 462 534 90 48 176
62 231 37z m-1288 -90 c-2 -13 -4 -3 -4 22 0 25 2 35 4 23 2 -13 2 -33 0 -45z
m-3516 -45 c32 -19 59 -68 59 -108 0 -17 -12 -39 -34 -61 -27 -27 -42 -34 -74
-34 -49 0 -86 28 -102 76 -10 30 -9 42 6 76 29 63 88 85 145 51z m3519 -66 c4
-5 156 -8 336 -8 218 1 325 -2 319 -8 -6 -6 -138 -12 -328 -15 -174 -3 -322
-8 -328 -12 -7 -4 -9 -137 -6 -428 4 -288 3 -389 -4 -321 -17 187 -18 935 -1
825 2 -14 7 -29 12 -33z m1410 29 c0 -38 -112 -382 -145 -446 -8 -16 -20 -30
-25 -30 -13 0 -79 59 -91 82 -8 14 -3 42 16 111 50 172 119 289 178 300 55 11
67 8 67 -17z m-4282 -48 c-3 -9 -37 -14 -122 -16 -119 -3 -152 0 -142 17 3 5
65 10 137 10 103 2 130 -1 127 -11z m1863 -138 c-9 -23 -10 -23 -10 12 -1 20
2 45 7 55 6 14 8 12 10 -12 2 -17 -1 -42 -7 -55z m-2761 0 c0 -16 61 -80 91
-96 15 -7 41 -14 56 -14 28 0 30 -3 100 -207 39 -115 99 -290 134 -390 l63
-181 -31 -26 c-79 -67 -130 -196 -113 -287 25 -131 131 -238 251 -255 51 -7
35 22 189 -334 227 -521 413 -878 623 -1189 75 -112 234 -306 335 -408 100
-102 98 -97 105 -249 3 -71 10 -103 32 -151 27 -61 27 -62 9 -93 -34 -56 -244
-196 -384 -253 -66 -28 -86 -31 -175 -32 -88 0 -107 3 -157 27 -165 77 -279
261 -391 628 -102 334 -113 382 -177 776 -89 538 -147 854 -181 984 -92 349
-98 380 -109 511 -23 287 -43 387 -137 679 -44 138 -146 421 -198 553 -6 14
-1 17 29 17 20 0 36 -4 36 -10z m2343 -328 c49 -28 89 -92 95 -151 6 -67 -17
-126 -67 -175 -32 -32 -49 -40 -88 -43 -145 -14 -250 91 -229 229 10 66 42
108 106 141 46 24 63 28 103 23 27 -3 63 -14 80 -24z m922 -63 c69 -47 106
-170 71 -237 -68 -130 -241 -138 -309 -14 -59 109 -20 224 93 271 38 16 106 6
145 -20z m-1816 -117 c47 -23 84 -93 78 -145 -6 -45 -49 -104 -85 -118 -35
-14 -105 -6 -137 15 -34 22 -56 68 -57 119 -2 113 103 180 201 129z m3388
-136 c33 -30 37 -39 41 -93 4 -58 3 -60 -32 -91 -65 -57 -116 -55 -178 7 -33
34 -38 44 -38 86 0 42 5 52 39 86 34 34 44 39 85 39 39 0 52 -6 83 -34z m-792
-187 c-4 -5 -28 -9 -54 -9 -26 0 -82 -3 -124 -6 l-77 -7 -1 -271 c-1 -163 -5
-251 -9 -221 -6 37 -15 492 -11 525 1 3 64 4 141 2 85 -2 138 -7 135 -13z
m1745 11 c0 -5 -4 -11 -8 -14 -16 -9 -732 -14 -738 -5 -3 5 -3 13 1 18 7 13
745 13 745 1z m-953 -266 c-43 -110 -61 -166 -86 -269 -33 -135 -80 -413 -91
-545 -16 -186 -43 -284 -118 -430 -146 -282 -215 -420 -254 -505 -76 -167
-199 -430 -214 -460 -195 -372 -220 -409 -431 -623 -126 -128 -176 -160 -334
-212 -60 -20 -74 -21 -145 -11 -44 5 -113 20 -154 31 -116 33 -359 169 -422
236 l-27 29 37 75 c35 72 37 80 38 184 l2 110 79 75 c43 42 150 135 237 206
88 72 185 153 216 180 31 28 146 127 256 220 256 219 616 535 673 591 24 24
48 44 53 44 5 0 31 -11 58 -25 63 -32 166 -35 232 -6 116 49 188 205 159 342
-11 51 -74 159 -93 159 -16 0 -7 33 63 223 39 105 86 235 104 287 58 168 65
180 105 180 19 1 46 7 60 15 37 20 37 2 -3 -101z m-4187 81 c43 -22 83 -96 82
-151 -2 -92 -64 -154 -152 -154 -115 0 -185 123 -130 230 40 78 129 112 200
75z m3764 -789 c44 -33 66 -97 56 -164 -10 -65 -71 -122 -130 -122 -136 0
-214 166 -129 275 29 36 54 45 116 42 37 -3 61 -11 87 -31z m278 -818 c-2
-136 -7 -247 -13 -252 -12 -13 -12 435 1 468 5 14 11 26 12 26 2 0 2 -109 0
-242z m12 -298 c14 -5 32 -20 41 -34 15 -22 15 -27 1 -55 -17 -31 -52 -61 -73
-61 -18 0 -83 65 -83 84 0 22 53 76 74 76 8 0 26 -4 40 -10z m-4440 -63 c8
-13 7 -24 -4 -45 -20 -35 -46 -39 -76 -11 -43 40 -24 82 35 77 19 -2 39 -11
45 -21z m183 -23 c-3 -3 -12 -4 -19 -1 -8 3 -5 6 6 6 11 1 17 -2 13 -5z m4096
-1 c-7 -2 -19 -2 -25 0 -7 3 -2 5 12 5 14 0 19 -2 13 -5z m163 -217 c19 -27
18 -55 -3 -78 -51 -57 -99 28 -53 97 11 17 20 39 21 50 0 12 5 6 11 -14 5 -19
16 -44 24 -55z m288 -31 c20 -31 20 -44 -1 -67 -21 -24 -54 -23 -87 3 -31 25
-33 42 -6 69 28 28 74 26 94 -5z m251 0 c14 -13 25 -31 25 -40 0 -22 -36 -55
-60 -55 -22 0 -70 41 -70 60 0 17 47 60 65 60 9 0 27 -11 40 -25z m239 9 c33
-33 37 -50 15 -78 -26 -32 -49 -33 -83 -1 -32 30 -32 39 -1 70 28 29 47 31 69
9z m280 -16 c47 -67 -31 -129 -89 -72 -21 22 -19 41 10 69 30 31 59 32 79 3z
m-5594 -48 c0 -5 -5 -10 -11 -10 -5 0 -7 5 -4 10 3 6 8 10 11 10 2 0 4 -4 4
-10z m2133 -46 c62 -21 135 -87 163 -149 60 -127 -3 -300 -131 -364 -41 -20
-58 -23 -129 -19 -104 5 -156 33 -209 110 -155 225 51 509 306 422z m2406 -51
c32 -27 39 -85 12 -112 -26 -26 -48 -26 -80 -2 -32 25 -32 73 -1 106 28 30 40
31 69 8z m300 -79 c16 -20 18 -31 11 -45 -10 -18 -48 -49 -61 -49 -11 0 -69
51 -69 60 0 17 54 60 76 60 12 0 32 -12 43 -26z m239 14 c23 -29 23 -56 1 -77
-27 -25 -51 -27 -84 -5 -32 21 -31 35 1 68 28 28 65 34 82 14z m256 -10 c9
-12 16 -28 16 -35 0 -19 -41 -53 -65 -53 -21 0 -65 33 -65 49 0 5 9 20 21 35
26 33 71 35 93 4z m250 -4 c34 -33 11 -84 -37 -84 -40 0 -57 15 -57 50 0 14 5
31 12 38 17 17 64 15 82 -4z m-1038 -219 c12 -8 27 -27 33 -44 17 -39 2 -66
-44 -81 -33 -11 -40 -9 -76 14 -53 36 -50 79 9 110 35 19 52 20 78 1z m301
-23 c12 -30 12 -34 -11 -57 l-24 -24 104 2 103 2 -26 20 c-30 25 -26 56 12 81
39 25 69 15 79 -28 8 -33 7 -41 -14 -63 -23 -24 -28 -25 -139 -24 -99 0 -122
4 -156 22 -49 27 -54 49 -20 82 36 37 74 31 92 -13z m490 4 c21 -44 15 -57
-39 -84 -33 -16 -63 -22 -112 -22 -36 0 -66 4 -66 9 0 6 32 13 70 17 66 6 70
8 55 24 -32 36 -5 90 47 90 22 0 32 -7 45 -34z m253 -25 c0 -51 -6 -58 -48
-57 -31 1 -57 45 -48 80 6 23 11 26 51 26 l45 0 0 -49z m-1187 -50 c18 -18
-120 -27 -371 -23 -154 2 -260 7 -256 13 3 5 101 9 217 10 117 0 230 4 252 9
44 10 145 4 158 -9z m385 -15 c3 -3 -37 -5 -89 -5 -70 1 -84 4 -54 9 43 7 134
5 143 -4z m702 4 c-8 -5 -44 -9 -80 -9 -51 1 -58 3 -35 9 46 12 133 12 115 0z
m-4986 -10 c-8 -8 -27 -8 -60 -2 l-49 10 60 1 c41 1 56 -2 49 -9z m4035 -89
c9 -17 -11 -81 -25 -81 -14 0 -44 33 -44 49 0 9 7 26 15 38 17 24 40 21 54 -6z
m300 -7 c27 -35 26 -49 -4 -80 -30 -30 -58 -26 -92 12 -21 23 -22 27 -8 54 25
47 73 54 104 14z m245 -11 c28 -55 -27 -103 -79 -69 -30 20 -32 45 -5 74 29
31 66 29 84 -5z m240 5 c20 -29 20 -47 -1 -70 -32 -36 -103 -12 -103 35 0 53
75 77 104 35z m-3001 -62 c99 -80 284 -196 381 -240 139 -62 223 -79 352 -73
l100 5 -22 -140 c-12 -77 -25 -174 -29 -217 -3 -42 -8 -87 -11 -100 l-5 -24
-27 26 c-25 23 -31 25 -72 17 -89 -18 -112 -13 -144 26 l-28 36 -27 -24 c-14
-14 -38 -32 -53 -41 -16 -10 -28 -23 -28 -30 0 -9 -41 -11 -172 -9 -95 2 -179
5 -185 7 -7 2 -13 17 -13 32 0 81 -96 196 -189 230 l-51 18 1 200 c1 110 4
210 8 223 4 17 20 28 60 42 29 10 65 29 79 44 15 14 28 26 30 26 2 0 22 -15
45 -34z m-462 -10 c24 -13 61 -29 81 -35 35 -12 37 -15 42 -64 3 -29 2 -130
-2 -226 l-7 -173 -49 -19 c-84 -31 -157 -119 -171 -206 -5 -31 -12 -43 -28
-47 -12 -3 -106 -6 -209 -6 -177 0 -187 1 -193 20 -11 36 -54 60 -107 60 -44
0 -53 -4 -98 -46 -45 -42 -51 -45 -97 -42 l-48 3 -2 40 c-2 36 -22 211 -43
375 -4 36 -7 66 -6 67 1 1 24 -4 51 -12 76 -23 189 -19 291 11 128 37 263 114
459 263 44 33 83 61 86 61 4 0 26 -11 50 -24z m2683 -112 c35 -35 34 -76 -1
-103 -17 -14 -33 -19 -47 -15 -64 19 -75 78 -23 118 17 14 35 26 38 26 4 0 18
-12 33 -26z m296 -41 c26 -33 23 -50 -12 -76 l-28 -21 -27 20 c-46 34 -50 50
-23 79 30 32 63 32 90 -2z m235 1 c32 -34 31 -48 -1 -73 -36 -28 -48 -26 -78
9 -29 35 -25 54 13 75 35 19 38 19 66 -11z m249 -7 l21 -29 -28 -24 c-33 -28
-54 -30 -79 -7 -25 22 -23 59 5 78 30 21 56 16 81 -18z m-769 -241 c20 -30 11
-72 -21 -92 -20 -14 -25 -14 -48 1 -62 41 -65 89 -8 119 31 16 54 8 77 -28z
m289 22 c9 -12 16 -26 16 -30 0 -16 -41 -48 -62 -48 -27 0 -58 27 -58 51 0 48
76 67 104 27z m226 2 c27 -27 25 -56 -4 -75 -42 -28 -108 14 -87 54 23 42 61
51 91 21z m244 -13 c8 -23 6 -31 -11 -49 -19 -18 -27 -20 -55 -12 -41 12 -48
44 -18 74 30 30 72 24 84 -13z m-775 -183 c27 -35 26 -57 -3 -91 -20 -23 -28
-26 -43 -17 -10 6 -24 23 -31 37 -18 37 10 92 50 96 4 1 16 -11 27 -25z m299
-6 c26 -26 0 -88 -37 -88 -23 0 -61 28 -61 46 0 39 70 70 98 42z m-2707 -77
c52 -33 79 -80 79 -140 0 -115 -88 -184 -204 -159 -121 26 -175 168 -99 259
64 76 145 90 224 40z m-921 -207 c15 -44 3 -60 -28 -38 -21 14 -30 53 -15 67
15 16 32 5 43 -29z"/>
<path d="M4370 5769 c0 -47 16 -69 51 -69 35 0 55 34 45 74 -6 23 -11 26 -51
26 -44 0 -45 -1 -45 -31z"/>
<path d="M4386 5624 c-21 -21 -20 -73 2 -90 51 -39 105 25 72 87 -13 23 -53
25 -74 3z"/>
<path d="M4352 5398 c-18 -18 -15 -75 4 -82 44 -17 84 7 84 49 0 38 -61 60
-88 33z"/>
<path d="M5286 5834 c-22 -21 -20 -61 3 -74 32 -17 60 -11 77 15 15 23 15 27
0 50 -19 29 -56 33 -80 9z"/>
<path d="M5250 5670 c-11 -11 -20 -29 -20 -40 0 -23 33 -60 54 -60 8 0 27 10
41 23 24 20 25 25 15 52 -19 49 -55 60 -90 25z"/>
<path d="M5050 5643 c-23 -9 -28 -22 -21 -56 8 -36 31 -46 67 -26 30 16 33 64
5 79 -21 11 -28 11 -51 3z"/>
<path d="M6147 5893 c-12 -11 -8 -23 8 -23 8 0 15 7 15 15 0 16 -12 20 -23 8z"/>
<path d="M6141 5776 c-18 -21 -9 -51 14 -51 16 0 19 6 17 25 -5 34 -16 44 -31
26z"/>
<path d="M6067 5693 c-4 -3 -7 -11 -7 -17 0 -6 5 -5 12 2 6 6 9 14 7 17 -3 3
-9 2 -12 -2z"/>
<path d="M6126 5618 c-3 -13 -6 -26 -6 -30 0 -13 35 -9 55 6 16 12 17 16 6 30
-19 23 -48 20 -55 -6z"/>
<path d="M6027 5543 c-3 -5 0 -19 5 -33 l10 -25 9 23 c9 24 5 42 -11 42 -5 0
-11 -3 -13 -7z"/>
<path d="M6146 5484 c-9 -24 -8 -26 21 -22 37 4 45 38 10 38 -14 0 -28 -7 -31
-16z"/>
<path d="M5917 5443 c-14 -13 -6 -40 18 -63 l24 -23 12 25 c8 19 8 31 0 47
-11 20 -41 28 -54 14z"/>
<path d="M6162 5361 c2 -7 7 -12 11 -12 12 1 9 15 -3 20 -7 2 -11 -2 -8 -8z"/>
<path d="M5806 5338 c-23 -32 -20 -45 15 -63 42 -22 73 -16 77 14 9 62 -58 98
-92 49z"/>
<path d="M6150 5199 c0 -14 5 -19 17 -17 26 5 29 38 4 38 -15 0 -21 -6 -21
-21z"/>
<path d="M5932 4700 c-24 -10 -46 -55 -36 -73 16 -28 49 -57 65 -57 21 0 69
55 69 79 0 48 -45 72 -98 51z"/>
<path d="M3610 5677 c-51 -26 -33 -97 25 -97 60 0 85 50 45 90 -23 23 -36 24
-70 7z"/>
<path d="M3638 5319 c-23 -13 -24 -65 -2 -73 9 -3 33 -6 55 -6 29 0 39 4 39
16 0 8 5 12 10 9 19 -12 10 12 -12 33 -29 26 -67 35 -90 21z"/>
<path d="M3643 5158 c-33 -42 -15 -68 47 -68 38 0 48 21 26 55 -18 27 -57 34
-73 13z"/>
<path d="M3470 2997 c0 -31 24 -64 34 -48 11 17 -1 58 -19 65 -11 4 -15 -1
-15 -17z"/>
<path d="M4345 2980 c-9 -14 5 -58 21 -64 8 -3 14 -15 14 -27 0 -12 3 -20 6
-17 7 8 -18 118 -28 118 -4 0 -9 -4 -13 -10z"/>
<path d="M3561 2907 c-11 -11 -16 -57 -5 -57 18 0 44 23 44 39 0 23 -23 34
-39 18z"/>
<path d="M4301 2832 c16 -41 20 -44 40 -26 26 23 24 27 -15 40 -34 10 -34 10
-25 -14z"/>
<path d="M3675 2831 c-6 -20 3 -51 15 -51 12 0 19 26 13 49 -7 26 -20 27 -28
2z"/>
<path d="M4170 2805 c0 -8 5 -15 10 -15 6 0 10 7 10 15 0 8 -4 15 -10 15 -5 0
-10 -7 -10 -15z"/>
<path d="M3777 2761 c-6 -25 0 -31 30 -31 28 0 31 25 4 40 -26 14 -28 13 -34
-9z"/>
<path d="M4210 2757 c0 -17 5 -27 14 -27 24 0 27 16 6 35 -19 18 -20 17 -20
-8z"/>
<path d="M4050 2730 c0 -18 8 -33 25 -44 24 -16 25 -15 31 9 7 28 -7 50 -36
58 -16 4 -20 0 -20 -23z"/>
<path d="M3636 2725 c16 -25 34 -33 34 -17 0 10 -33 42 -44 42 -3 0 1 -11 10
-25z"/>
<path d="M3715 2660 c-4 -6 5 -10 20 -10 15 0 24 4 20 10 -3 6 -12 10 -20 10
-8 0 -17 -4 -20 -10z"/>
<path d="M3825 2630 c3 -5 15 -10 26 -10 10 0 19 5 19 10 0 6 -12 10 -26 10
-14 0 -23 -4 -19 -10z"/>
<path d="M7212 5058 c2 -21 8 -33 18 -33 10 0 16 12 18 33 3 27 0 32 -18 32
-18 0 -21 -5 -18 -32z"/>
<path d="M7067 4482 c-21 -23 -12 -82 13 -82 11 0 42 79 35 91 -10 14 -30 11
-48 -9z"/>
<path d="M6915 4440 c-8 -13 21 -60 36 -60 16 0 21 27 9 49 -11 22 -35 28 -45
11z"/>
<path d="M7020 4351 c0 -11 26 -22 34 -14 12 12 5 23 -14 23 -11 0 -20 -4 -20
-9z"/>
<path d="M6878 4310 c-12 -29 -17 -90 -7 -90 5 0 12 6 15 14 8 20 0 94 -8 76z"/>
<path d="M6970 4251 c0 -41 16 -47 34 -13 17 32 13 42 -16 42 -13 0 -18 -8
-18 -29z"/>
<path d="M6920 4146 c0 -22 26 -43 38 -31 7 7 -19 55 -30 55 -4 0 -8 -11 -8
-24z"/>
<path d="M6802 4123 c4 -21 33 -25 33 -3 0 8 -8 16 -18 18 -14 3 -18 -1 -15
-15z"/>
<path d="M6872 4051 c-20 -12 -10 -46 13 -46 14 0 20 7 20 24 0 27 -13 35 -33
22z"/>
<path d="M6750 4023 c0 -10 4 -25 10 -33 8 -12 10 -12 16 3 7 20 -1 47 -16 47
-5 0 -10 -8 -10 -17z"/>
<path d="M6810 3914 c-14 -37 5 -58 26 -29 8 11 13 26 12 34 -5 26 -28 23 -38
-5z"/>
<path d="M6689 3899 c-13 -24 -5 -49 15 -49 14 0 26 20 26 45 0 23 -29 26 -41
4z"/>
<path d="M6750 3795 c-10 -19 -11 -28 -2 -37 18 -18 44 -1 40 29 -4 35 -21 39
-38 8z"/>
<path d="M6620 3796 c0 -25 12 -46 25 -46 21 0 27 17 15 40 -12 23 -40 27 -40
6z"/>
<path d="M6554 3685 c-9 -23 3 -45 26 -45 23 0 27 29 8 48 -16 16 -27 15 -34
-3z"/>
<path d="M6688 3683 c-10 -40 17 -58 42 -28 10 12 10 18 0 30 -17 20 -37 19
-42 -2z"/>
<path d="M6494 3586 c-9 -23 7 -68 25 -74 11 -4 13 3 8 33 -8 47 -23 66 -33
41z"/>
<path d="M6620 3551 c0 -35 28 -50 47 -25 16 22 0 54 -27 54 -15 0 -20 -7 -20
-29z"/>
<path d="M6550 3460 c0 -14 30 -60 40 -60 4 0 12 11 18 25 10 21 9 26 -8 35
-24 13 -50 13 -50 0z"/>
<path d="M6415 3451 c-3 -6 -1 -20 6 -33 11 -21 12 -21 25 -3 8 11 13 24 11
30 -5 14 -34 18 -42 6z"/>
<path d="M6485 3349 c-9 -28 34 -78 47 -54 9 16 -16 75 -32 75 -5 0 -12 -9
-15 -21z"/>
<path d="M6336 3352 c-8 -13 8 -65 21 -69 18 -6 25 34 11 56 -14 22 -24 26
-32 13z"/>
<path d="M6422 3244 c-8 -15 -4 -26 19 -51 37 -42 46 -27 15 27 -22 38 -25 41
-34 24z"/>
<path d="M6243 3224 c-3 -8 2 -23 11 -32 14 -15 18 -15 31 -1 9 9 13 23 9 32
-8 21 -43 22 -51 1z"/>
<path d="M6346 3155 c-6 -16 13 -55 26 -55 14 0 9 47 -6 59 -11 9 -15 8 -20
-4z"/>
<path d="M6160 3133 c0 -28 15 -44 33 -37 20 7 22 25 5 42 -18 18 -38 15 -38
-5z"/>
<path d="M6390 3078 c0 -18 18 -34 28 -24 3 4 -2 14 -11 23 -16 16 -17 16 -17
1z"/>
<path d="M6266 3065 c-5 -15 8 -55 19 -55 2 0 9 8 14 19 8 14 6 22 -8 35 -17
15 -19 15 -25 1z"/>
<path d="M6090 3052 c0 -5 9 -17 20 -27 19 -18 20 -17 20 2 0 12 -7 24 -16 27
-21 8 -24 8 -24 -2z"/>
<path d="M6300 2998 c0 -19 18 -43 25 -36 9 9 -4 48 -16 48 -5 0 -9 -6 -9 -12z"/>
<path d="M5994 2976 c-6 -16 12 -56 26 -56 15 0 22 40 10 55 -16 19 -29 19
-36 1z"/>
<path d="M6175 2953 c4 -16 12 -34 18 -42 9 -11 13 -8 19 15 6 22 4 32 -9 42
-26 19 -36 14 -28 -15z"/>
<path d="M5331 2893 c-6 -20 -8 -39 -5 -42 10 -10 57 47 51 63 -11 29 -36 17
-46 -21z"/>
<path d="M5901 2891 c-13 -24 9 -57 33 -48 19 7 21 38 4 55 -17 17 -26 15 -37
-7z"/>
<path d="M6225 2900 c-6 -9 16 -40 29 -40 12 0 6 28 -8 39 -10 8 -16 9 -21 1z"/>
<path d="M6073 2885 c-7 -21 27 -59 40 -46 7 7 7 19 -1 36 -13 28 -30 33 -39
10z"/>
<path d="M5458 2839 c-26 -19 -38 -49 -20 -49 15 0 40 25 47 48 8 27 7 27 -27
1z"/>
<path d="M5785 2801 c-6 -19 3 -51 14 -51 3 0 17 9 31 20 24 20 25 21 6 35
-26 20 -43 19 -51 -4z"/>
<path d="M5984 2794 c-6 -24 6 -43 28 -44 13 0 19 41 8 55 -18 22 -29 18 -36
-11z"/>
<path d="M6134 2805 c26 -19 42 -19 26 0 -7 8 -20 15 -29 15 -13 -1 -13 -3 3
-15z"/>
<path d="M5552 2754 c-12 -8 -22 -19 -22 -25 0 -16 47 -10 54 7 14 37 4 43
-32 18z"/>
<path d="M5682 2715 c-16 -34 -16 -35 12 -35 32 0 40 14 24 40 -17 26 -22 25
-36 -5z"/>
<path d="M5880 2714 c-12 -30 -6 -44 20 -44 26 0 32 14 19 44 -15 33 -27 33
-39 0z"/>
<path d="M6030 2730 c0 -5 7 -10 15 -10 8 0 15 5 15 10 0 6 -7 10 -15 10 -8 0
-15 -4 -15 -10z"/>
<path d="M5786 2641 c-8 -13 4 -42 15 -35 12 7 12 44 0 44 -6 0 -12 -4 -15 -9z"/>
<path d="M5344 2515 c-10 -25 4 -45 31 -45 27 0 31 10 15 41 -13 23 -38 25
-46 4z"/>
<path d="M5481 2441 c-18 -33 -13 -51 14 -51 29 0 43 25 28 48 -15 24 -31 25
-42 3z"/>
<path d="M5707 2383 c-4 -3 -7 -17 -7 -30 0 -18 5 -23 25 -23 25 0 31 13 19
44 -6 16 -26 21 -37 9z"/>
<path d="M5814 2344 c-4 -27 -2 -50 4 -56 7 -7 11 7 13 42 5 65 -7 76 -17 14z"/>
<path d="M5591 2356 c-17 -20 -10 -60 11 -64 24 -5 36 44 16 64 -13 13 -16 13
-27 0z"/>
<path d="M5485 2290 c-3 -5 -3 -14 0 -20 3 -5 1 -10 -6 -10 -10 0 -10 -3 -2
-11 8 -8 17 -8 32 0 17 10 19 15 11 31 -12 22 -25 26 -35 10z"/>
<path d="M5700 2230 c0 -35 23 -41 40 -11 16 31 12 41 -15 41 -21 0 -25 -5
-25 -30z"/>
<path d="M5817 2207 c-11 -29 -9 -43 4 -30 6 6 9 19 7 29 -3 18 -4 18 -11 1z"/>
<path d="M5576 2201 c-8 -12 11 -61 23 -61 17 0 24 22 10 32 -11 7 -11 11 -1
15 6 2 12 9 12 14 0 12 -37 12 -44 0z"/>
<path d="M5483 2148 c-15 -21 -9 -43 12 -43 14 0 20 7 20 24 0 28 -17 38 -32
19z"/>
<path d="M5810 2140 c0 -19 3 -21 12 -12 9 9 9 15 0 24 -9 9 -12 7 -12 -12z"/>
<path d="M5703 2113 c-14 -5 -18 -35 -7 -46 12 -11 44 13 44 33 0 19 -12 24
-37 13z"/>
<path d="M3780 2311 c0 -5 -3 -17 -6 -26 -6 -16 -5 -16 25 -1 17 9 29 21 26
26 -8 13 -45 13 -45 1z"/>
<path d="M3800 2176 c0 -13 6 -29 14 -35 12 -10 17 -8 25 8 18 33 13 51 -14
51 -20 0 -25 -5 -25 -24z"/>
<path d="M1340 9097 c-86 -24 -150 -82 -188 -170 -42 -98 31 -273 138 -327
l37 -19 5 -279 c3 -154 8 -284 11 -289 3 -5 22 -7 41 -5 l36 4 0 284 0 283 39
11 c48 13 132 95 164 160 l22 45 790 2 c435 2 847 3 918 3 118 0 127 1 127 19
0 55 65 51 -919 51 l-906 0 -17 48 c-21 58 -88 136 -137 161 -51 26 -108 32
-161 18z m114 -148 c51 -40 71 -112 45 -162 -21 -40 -62 -77 -87 -77 -61 0
-128 60 -139 124 -8 48 20 104 59 121 47 20 91 18 122 -6z"/>
<path d="M7339 8993 c-77 -84 -80 -88 -73 -120 l6 -31 76 85 c58 66 72 87 61
94 -23 15 -33 11 -70 -28z"/>
<path d="M7558 8977 c-26 -28 -218 -224 -427 -435 -336 -338 -404 -413 -389
-427 5 -6 164 120 180 143 25 36 203 218 260 267 42 35 59 58 64 82 7 35 24
56 24 29 0 -9 1 -16 3 -16 11 0 385 386 379 391 -27 25 -48 17 -94 -34z"/>
<path d="M7580 8772 c-291 -294 -319 -327 -311 -361 6 -21 38 8 311 283 168
168 306 310 308 315 2 7 -30 21 -48 21 -3 0 -120 -116 -260 -258z"/>
<path d="M8048 9021 c-1 -4 -169 -178 -373 -385 -203 -207 -375 -387 -383
-402 -7 -14 -12 -36 -10 -49 3 -21 59 32 383 363 412 420 447 458 424 473 -18
11 -36 11 -41 0z"/>
<path d="M6878 8520 c-309 -310 -381 -390 -352 -390 20 0 148 117 334 305 118
120 254 257 303 304 67 67 87 92 87 114 0 15 -3 27 -7 27 -5 -1 -169 -162
-365 -360z"/>
<path d="M7210 8397 c-60 -46 -250 -258 -250 -278 0 -19 19 -5 145 106 94 84
134 126 143 152 19 54 11 58 -38 20z"/>
<path d="M7216 8188 c-43 -49 -47 -78 -12 -78 13 0 28 6 33 13 10 12 26 107
19 107 -3 0 -21 -19 -40 -42z"/>
<path d="M1369 7992 c-39 -5 -80 -53 -86 -101 -5 -36 -2 -44 27 -71 44 -41
109 -43 145 -4 39 42 37 104 -6 150 -23 25 -42 31 -80 26z"/>
<path d="M1345 7770 c-3 -5 -8 -110 -12 -234 l-6 -225 -31 -12 c-82 -34 -139
-120 -139 -209 -1 -146 121 -265 254 -247 55 7 127 53 163 105 35 50 46 136
26 207 -17 60 -79 129 -134 150 l-43 17 -5 219 c-2 120 -6 221 -9 223 -10 10
-59 14 -64 6z m108 -601 c37 -28 54 -88 37 -129 -18 -43 -65 -80 -102 -80 -36
0 -103 61 -113 103 -23 89 104 165 178 106z"/>
<path d="M1210 5483 c-38 -15 -40 -60 -4 -73 34 -13 64 3 64 35 0 20 -27 48
-42 44 -2 0 -10 -3 -18 -6z"/>
<path d="M957 5474 c-14 -14 -7 -54 12 -64 32 -16 73 7 69 39 -3 22 -9 26 -38
29 -20 2 -39 0 -43 -4z"/>
<path d="M1417 5474 c-17 -17 -6 -55 19 -66 34 -16 59 0 59 38 0 26 -4 29 -35
32 -20 2 -39 0 -43 -4z"/>
<path d="M1646 5459 c-29 -41 16 -83 60 -54 29 19 30 36 6 58 -25 23 -48 21
-66 -4z"/>
<path d="M960 5255 c-15 -18 -10 -45 12 -58 22 -15 68 6 68 31 0 39 -55 58
-80 27z"/>
<path d="M1194 5249 c-13 -15 -16 -24 -8 -36 26 -42 62 -42 88 1 9 14 6 21
-13 37 -30 24 -43 24 -67 -2z"/>
<path d="M1425 5246 c-17 -12 -18 -18 -7 -40 15 -34 66 -37 83 -4 10 18 8 24
-11 40 -27 22 -40 23 -65 4z"/>
<path d="M1642 5248 c-19 -19 -14 -46 12 -63 41 -27 89 13 66 55 -12 23 -59
27 -78 8z"/>
<path d="M9057 4957 c-370 -362 -577 -570 -577 -579 0 -29 78 26 175 123 44
44 214 212 379 374 212 208 297 298 293 309 -4 9 -10 16 -14 16 -4 0 -119
-109 -256 -243z"/>
<path d="M960 5035 c-27 -32 7 -73 52 -62 33 9 43 35 22 58 -20 23 -57 25 -74
4z"/>
<path d="M1196 5034 c-19 -19 -20 -25 -3 -48 16 -22 65 -18 81 6 8 13 6 22 -8
37 -23 25 -49 27 -70 5z"/>
<path d="M1425 5036 c-16 -12 -17 -18 -8 -39 16 -34 52 -45 70 -21 17 23 16
39 -3 58 -19 20 -35 20 -59 2z"/>
<path d="M1662 5040 c-31 -13 -38 -37 -17 -60 31 -34 75 -19 75 25 0 20 -17
46 -29 44 -4 0 -16 -4 -29 -9z"/>
<path d="M757 5033 c-13 -3 -17 -12 -15 -31 2 -22 8 -27 32 -27 39 0 59 31 32
51 -11 8 -22 13 -25 13 -3 -1 -14 -3 -24 -6z"/>
<path d="M968 4829 c-45 -26 5 -104 51 -80 32 18 37 52 11 73 -25 20 -37 22
-62 7z"/>
<path d="M1196 4824 c-9 -8 -16 -22 -16 -29 0 -18 28 -45 46 -45 27 0 54 20
54 40 0 24 -26 50 -50 50 -10 0 -26 -7 -34 -16z"/>
<path d="M1426 4824 c-26 -25 -20 -63 11 -70 14 -4 33 -2 42 3 23 15 26 54 5
70 -23 17 -39 16 -58 -3z"/>
<path d="M747 4823 c-17 -16 -6 -54 18 -65 41 -19 75 28 43 60 -13 13 -50 16
-61 5z"/>
<path d="M1646 4808 c-21 -30 -20 -35 8 -53 42 -27 89 13 66 56 -14 26 -55 24
-74 -3z"/>
<path d="M755 4607 c-13 -10 -16 -21 -12 -39 8 -31 24 -38 55 -27 28 11 30 54
3 69 -25 13 -24 13 -46 -3z"/>
<path d="M967 4602 c-21 -23 -21 -27 -1 -46 37 -38 97 -7 76 39 -14 30 -51 33
-75 7z"/>
<path d="M1203 4610 c-43 -17 -22 -70 27 -70 46 0 64 34 34 64 -17 18 -29 19
-61 6z"/>
<path d="M1425 4606 c-17 -12 -18 -17 -7 -41 10 -22 18 -26 44 -23 17 2 36 11
42 21 9 15 7 22 -13 38 -28 23 -41 24 -66 5z"/>
<path d="M1642 4608 c-17 -17 -15 -42 6 -61 33 -30 82 -16 82 23 0 38 -62 64
-88 38z"/>
<path d="M972 4398 c-18 -18 -15 -42 7 -62 22 -20 54 -10 65 20 8 21 8 20 -10
38 -18 19 -45 21 -62 4z"/>
<path d="M1206 4397 c-28 -21 -17 -61 17 -65 49 -6 73 30 41 62 -19 19 -35 20
-58 3z"/>
<path d="M1426 4394 c-22 -22 -20 -41 8 -59 29 -19 54 -10 63 23 10 42 -40 68
-71 36z"/>
<path d="M1662 4400 c-34 -14 -39 -40 -12 -62 32 -26 62 -19 75 15 8 24 6 31
-10 43 -21 16 -22 16 -53 4z"/>
<path d="M750 4385 c-20 -24 -8 -50 26 -53 39 -4 60 18 44 47 -13 24 -52 28
-70 6z"/>
<path d="M762 4184 c-27 -19 -28 -36 -2 -59 18 -17 21 -17 45 -1 30 20 29 42
0 62 -18 12 -24 11 -43 -2z"/>
<path d="M966 4181 c-36 -40 14 -88 63 -61 25 13 27 42 5 64 -21 21 -47 20
-68 -3z"/>
<path d="M1196 4184 c-21 -21 -20 -37 4 -59 13 -12 27 -15 45 -11 34 9 41 30
21 61 -19 29 -47 32 -70 9z"/>
<path d="M1427 4182 c-26 -29 -22 -60 10 -68 14 -4 33 -2 42 3 23 15 26 54 5
70 -24 18 -38 16 -57 -5z"/>
<path d="M1644 4175 c-16 -24 -16 -27 1 -45 26 -28 63 -26 77 5 9 21 8 28 -7
45 -25 27 -51 25 -71 -5z"/>
<path d="M750 3965 c-26 -32 13 -81 48 -59 34 22 22 74 -18 74 -10 0 -23 -7
-30 -15z"/>
<path d="M966 3958 c-11 -15 -12 -26 -5 -40 14 -25 65 -24 79 2 26 48 -42 84
-74 38z"/>
<path d="M1203 3973 c-7 -2 -13 -18 -13 -34 0 -39 43 -59 71 -33 43 39 -2 90
-58 67z"/>
<path d="M1438 3973 c-22 -6 -33 -40 -18 -58 18 -22 67 -19 80 5 8 15 6 24
-10 40 -20 20 -23 21 -52 13z"/>
<path d="M1640 3965 c-26 -31 19 -83 60 -70 25 8 37 50 20 70 -16 19 -64 19
-80 0z"/>
<path d="M1432 3758 c-34 -34 6 -90 48 -68 24 13 26 43 4 64 -19 19 -36 20
-52 4z"/>
<path d="M739 3744 c-18 -22 1 -49 36 -49 35 0 54 27 36 49 -8 9 -24 16 -36
16 -12 0 -28 -7 -36 -16z"/>
<path d="M972 3748 c-20 -20 -14 -47 13 -54 30 -8 53 0 61 21 14 35 -46 61
-74 33z"/>
<path d="M1197 3753 c-15 -14 -6 -53 14 -64 44 -23 91 25 57 59 -13 13 -60 16
-71 5z"/>
<path d="M1641 3746 c-21 -25 12 -66 54 -66 23 0 41 45 25 65 -16 19 -64 20
-79 1z"/>
<path d="M1424 3546 c-12 -32 0 -61 28 -64 23 -3 30 2 38 24 7 19 7 30 -1 40
-15 18 -58 18 -65 0z"/>
<path d="M1661 3546 c-7 -8 -11 -25 -9 -38 2 -18 9 -23 33 -23 28 0 30 3 30
35 0 28 -4 36 -21 38 -11 2 -26 -4 -33 -12z"/>
<path d="M754 3536 c-10 -26 4 -48 28 -44 17 2 23 10 23 28 0 18 -6 26 -23 28
-13 2 -25 -3 -28 -12z"/>
<path d="M1197 3531 c-6 -24 2 -37 30 -45 16 -5 25 -2 33 14 16 31 5 50 -29
50 -20 0 -30 -6 -34 -19z"/>
<path d="M970 3495 c0 -25 6 -37 21 -45 26 -15 29 -11 36 39 6 40 5 41 -26 41
-29 0 -31 -2 -31 -35z"/>
<path d="M8617 3442 c-24 -26 -21 -49 9 -69 26 -16 27 -16 45 6 24 30 24 58 0
71 -27 14 -35 13 -54 -8z"/>
<path d="M9050 3440 c-21 -21 -20 -30 8 -62 40 -47 102 5 68 57 -20 30 -49 32
-76 5z"/>
<path d="M8836 3431 c-33 -37 -3 -80 47 -67 30 7 43 37 27 66 -14 25 -51 26
-74 1z"/>
<path d="M1222 3384 c-15 -16 -8 -34 14 -34 8 0 14 10 14 25 0 28 -9 31 -28 9z"/>
<path d="M1682 3388 c-7 -7 -12 -23 -12 -36 0 -19 5 -23 23 -20 17 2 22 10 22
32 0 32 -14 43 -33 24z"/>
<path d="M1430 3360 c0 -34 22 -49 45 -30 8 7 15 23 15 36 0 20 -5 24 -30 24
-27 0 -30 -3 -30 -30z"/>
<path d="M8848 3233 c-39 -46 -28 -73 27 -73 38 0 47 18 32 63 -10 31 -37 36
-59 10z"/>
<path d="M9056 3234 c-21 -21 -20 -47 2 -67 33 -30 72 -14 72 29 0 25 -24 54
-45 54 -7 0 -21 -7 -29 -16z"/>
<path d="M8618 3215 c-15 -34 5 -57 46 -53 24 2 32 9 34 26 8 51 -58 74 -80
27z"/>
<path d="M959 3209 c-16 -31 3 -69 36 -69 17 0 29 8 36 24 15 32 -4 66 -36 66
-15 0 -29 -9 -36 -21z"/>
<path d="M1195 3206 c-13 -19 -14 -29 -5 -45 20 -39 80 -21 80 24 0 47 -49 60
-75 21z"/>
<path d="M1654 3205 c-21 -33 -15 -56 20 -68 32 -11 46 1 46 44 0 50 -39 65
-66 24z"/>
<path d="M1414 3196 c-10 -41 1 -58 38 -54 30 3 33 6 33 38 0 32 -3 35 -32 38
-28 3 -33 -1 -39 -22z"/>
<path d="M740 3185 c0 -31 26 -43 47 -22 21 21 9 47 -22 47 -20 0 -25 -5 -25
-25z"/>
<path d="M1646 3014 c-22 -22 -20 -37 9 -64 31 -29 58 -19 63 24 6 49 -38 74
-72 40z"/>
<path d="M8626 3014 c-21 -20 -20 -37 2 -57 33 -30 82 -16 82 24 0 19 -35 49
-57 49 -6 0 -19 -7 -27 -16z"/>
<path d="M8848 3019 c-28 -16 -23 -57 8 -71 47 -22 83 24 48 63 -19 21 -31 23
-56 8z"/>
<path d="M735 3000 c-14 -43 44 -67 68 -29 16 26 1 49 -32 49 -21 0 -32 -6
-36 -20z"/>
<path d="M962 3008 c-25 -25 -6 -68 30 -68 10 0 25 11 34 25 13 20 14 28 4 40
-15 18 -51 20 -68 3z"/>
<path d="M1192 3008 c-28 -28 -3 -72 39 -66 30 4 47 33 33 56 -14 21 -55 27
-72 10z"/>
<path d="M1414 2995 c-8 -33 12 -57 44 -53 58 7 53 70 -6 76 -26 3 -32 -1 -38
-23z"/>
<path d="M8420 2985 c0 -36 0 -36 38 -33 34 3 37 6 37 33 0 27 -3 30 -37 33
-38 3 -38 3 -38 -33z"/>
<path d="M9053 3008 c-17 -22 0 -63 27 -66 38 -4 64 19 56 51 -5 23 -12 27
-40 27 -18 0 -38 -6 -43 -12z"/>
<path d="M9285 3001 c-3 -5 4 -13 16 -16 17 -6 19 -9 8 -16 -10 -6 -8 -9 9 -9
17 0 22 6 22 25 0 20 -5 25 -24 25 -14 0 -27 -4 -31 -9z"/>
<path d="M954 2796 c-10 -41 1 -58 38 -54 30 3 33 6 33 38 0 32 -3 35 -32 38
-28 3 -33 -1 -39 -22z"/>
<path d="M1192 2808 c-18 -18 -15 -42 9 -64 22 -20 43 -13 63 19 23 36 -41 76
-72 45z"/>
<path d="M1408 2794 c-11 -23 -10 -29 11 -45 30 -24 43 -24 66 1 15 17 16 24
7 45 -17 36 -68 35 -84 -1z"/>
<path d="M1647 2802 c-24 -27 -21 -51 9 -64 36 -17 59 0 59 43 0 29 -4 34 -26
37 -15 2 -32 -5 -42 -16z"/>
<path d="M8405 2801 c-11 -36 3 -61 34 -61 34 0 54 21 49 52 -2 19 -10 24 -40
26 -29 3 -38 -1 -43 -17z"/>
<path d="M8620 2799 c-10 -18 -8 -25 14 -48 21 -20 30 -24 43 -15 48 30 40 77
-15 82 -23 2 -34 -2 -42 -19z"/>
<path d="M8847 2802 c-22 -25 -21 -49 2 -62 33 -17 57 -12 70 16 22 49 -36 86
-72 46z"/>
<path d="M9072 2804 c-27 -18 -28 -36 -4 -57 26 -24 49 -21 68 8 16 24 16 27
-1 45 -22 24 -34 25 -63 4z"/>
<path d="M736 2794 c-9 -24 12 -54 39 -54 29 0 39 14 31 46 -5 18 -13 24 -35
24 -17 0 -31 -6 -35 -16z"/>
<path d="M956 2594 c-9 -8 -16 -22 -16 -29 0 -21 29 -45 54 -45 31 0 49 23 40
52 -12 40 -50 51 -78 22z"/>
<path d="M1423 2598 c-19 -25 -22 -48 -7 -63 30 -29 84 -13 84 26 0 31 -59 59
-77 37z"/>
<path d="M1658 2598 c-38 -30 -25 -78 21 -78 43 0 59 60 22 80 -24 13 -24 13
-43 -2z"/>
<path d="M8412 2598 c-35 -35 12 -92 57 -69 27 15 28 57 2 71 -26 13 -44 13
-59 -2z"/>
<path d="M8848 2599 c-21 -12 -24 -49 -6 -67 21 -21 68 -15 77 11 17 43 -30
81 -71 56z"/>
<path d="M9068 2599 c-21 -12 -24 -49 -6 -67 28 -28 78 -7 78 33 0 40 -35 56
-72 34z"/>
<path d="M752 2591 c-8 -4 -12 -19 -10 -32 2 -18 9 -24 28 -24 21 0 25 5 25
30 0 31 -19 42 -43 26z"/>
<path d="M1187 2594 c-17 -17 -6 -55 19 -66 34 -16 59 0 59 38 0 26 -4 29 -35
32 -20 2 -39 0 -43 -4z"/>
<path d="M8621 2586 c-19 -23 -9 -49 22 -60 37 -14 62 3 62 40 0 26 -4 29 -36
32 -23 2 -40 -2 -48 -12z"/>
<path d="M954 2365 c-16 -24 -16 -27 1 -45 24 -26 50 -25 69 2 20 28 20 33 0
52 -23 23 -51 19 -70 -9z"/>
<path d="M1198 2379 c-22 -12 -23 -52 -3 -69 19 -16 62 -5 75 20 8 15 6 24
-10 40 -22 22 -36 24 -62 9z"/>
<path d="M1416 2368 c-32 -45 31 -89 69 -48 15 17 16 24 7 45 -15 32 -55 34
-76 3z"/>
<path d="M1637 2383 c-14 -13 -7 -50 12 -67 24 -22 49 -18 67 9 12 18 11 24
-2 43 -15 21 -62 31 -77 15z"/>
<path d="M1883 2378 c-30 -15 -29 -44 2 -64 34 -22 75 -6 75 29 0 43 -31 57
-77 35z"/>
<path d="M8412 2378 c-6 -6 -12 -25 -12 -40 0 -22 6 -29 27 -34 37 -10 58 7
58 47 0 30 -3 34 -30 37 -17 2 -36 -3 -43 -10z"/>
<path d="M8626 2377 c-27 -20 -17 -59 17 -71 50 -18 88 31 52 68 -20 19 -45
21 -69 3z"/>
<path d="M8837 2372 c-29 -31 1 -72 52 -72 24 0 40 44 24 69 -15 24 -56 25
-76 3z"/>
<path d="M9061 2376 c-20 -24 -5 -65 26 -72 35 -9 66 26 54 59 -10 27 -62 35
-80 13z"/>
<path d="M755 2366 c-16 -12 -17 -16 -6 -30 18 -21 28 -20 40 3 15 27 -9 46
-34 27z"/>
<path d="M9325 2360 c3 -5 8 -10 11 -10 2 0 4 5 4 10 0 6 -5 10 -11 10 -5 0
-7 -4 -4 -10z"/>
<path d="M965 2164 c-20 -20 -16 -53 8 -68 39 -24 79 44 41 71 -23 17 -29 16
-49 -3z"/>
<path d="M1192 2168 c-17 -17 -15 -53 3 -68 23 -19 64 -4 71 27 11 41 -44 71
-74 41z"/>
<path d="M1422 2168 c-26 -26 -7 -78 28 -78 19 0 50 30 50 48 0 32 -54 54 -78
30z"/>
<path d="M1646 2164 c-36 -35 -2 -83 50 -70 46 12 24 86 -25 86 -5 0 -17 -7
-25 -16z"/>
<path d="M1881 2161 c-25 -25 -26 -35 -5 -55 25 -25 63 -20 76 10 23 50 -31
85 -71 45z"/>
<path d="M8008 2173 c-22 -6 -29 -28 -18 -58 12 -31 32 -40 58 -26 29 15 34
49 11 72 -19 19 -22 20 -51 12z"/>
<path d="M8409 2161 c-21 -17 -22 -22 -11 -45 10 -24 17 -27 50 -24 32 3 37 7
40 29 3 28 -20 59 -43 59 -7 0 -23 -8 -36 -19z"/>
<path d="M8625 2164 c-22 -23 -15 -56 17 -73 24 -14 28 -14 47 3 25 23 27 49
5 70 -20 21 -48 20 -69 0z"/>
<path d="M8850 2160 c-39 -39 -12 -80 46 -68 28 5 37 45 14 68 -25 25 -35 25
-60 0z"/>
<path d="M9080 2167 c-35 -18 -33 -57 3 -77 27 -14 29 -14 48 9 23 29 22 49
-6 67 -16 11 -25 11 -45 1z"/>
<path d="M8184 2155 c-10 -24 4 -63 25 -70 27 -8 50 4 57 31 10 39 -2 54 -41
54 -22 0 -38 -6 -41 -15z"/>
<path d="M1647 1962 c-32 -35 -14 -72 35 -72 50 0 60 66 12 84 -24 9 -29 8
-47 -12z"/>
<path d="M2462 1968 c-7 -7 -12 -21 -12 -33 0 -12 5 -26 12 -33 29 -29 78 -7
78 35 0 35 -53 56 -78 31z"/>
<path d="M961 1951 c-14 -25 -5 -48 20 -56 27 -9 51 13 47 44 -4 34 -51 43
-67 12z"/>
<path d="M1192 1958 c-19 -19 -14 -46 12 -63 26 -18 52 -11 67 16 19 36 -49
77 -79 47z"/>
<path d="M1414 1945 c-10 -40 2 -57 37 -53 44 4 59 30 35 57 -27 30 -64 27
-72 -4z"/>
<path d="M1877 1952 c-23 -25 -21 -38 5 -56 32 -23 55 -20 73 8 34 51 -37 94
-78 48z"/>
<path d="M2210 1955 c-27 -33 8 -73 54 -61 35 9 43 32 21 56 -21 23 -58 26
-75 5z"/>
<path d="M7767 1953 c-12 -12 -7 -50 7 -63 20 -15 56 -9 70 12 19 32 -50 78
-77 51z"/>
<path d="M7986 1941 c-27 -30 -17 -55 24 -59 24 -3 38 2 47 14 17 23 16 29 -3
48 -21 21 -47 20 -68 -3z"/>
<path d="M8188 1934 c-25 -54 45 -90 78 -39 16 24 16 27 -1 45 -26 29 -63 26
-77 -6z"/>
<path d="M8408 1949 c-23 -13 -23 -42 0 -62 24 -22 41 -21 71 2 24 18 24 20 8
45 -18 27 -49 33 -79 15z"/>
<path d="M8620 1945 c-17 -21 -8 -47 22 -65 21 -11 32 -12 45 -4 22 14 29 50
13 70 -16 18 -64 18 -80 -1z"/>
<path d="M8839 1939 c-18 -18 -19 -23 -6 -42 20 -31 72 -35 87 -7 9 17 8 26
-5 46 -19 29 -48 31 -76 3z"/>
<path d="M9060 1945 c-19 -23 -4 -64 26 -71 19 -5 31 -1 47 14 18 18 19 25 9
47 -13 29 -61 35 -82 10z"/>
<path d="M5718 1783 c-14 -3 -18 -15 -18 -44 0 -32 3 -39 20 -39 14 0 21 9 26
36 7 39 -1 53 -28 47z"/>
<path d="M1428 1739 c-22 -12 -23 -52 -3 -69 23 -19 64 -4 71 27 11 40 -29 65
-68 42z"/>
<path d="M1642 1738 c-16 -16 -15 -53 2 -67 8 -7 27 -11 43 -9 51 6 41 88 -11
88 -12 0 -27 -5 -34 -12z"/>
<path d="M1886 1737 c-27 -20 -17 -59 17 -71 34 -12 61 1 65 33 7 44 -42 67
-82 38z"/>
<path d="M2224 1733 c-29 -29 -7 -73 37 -73 35 0 60 39 40 64 -17 21 -60 26
-77 9z"/>
<path d="M2462 1738 c-17 -17 -15 -42 6 -61 24 -22 41 -21 58 1 21 27 16 52
-12 62 -33 13 -37 13 -52 -2z"/>
<path d="M2703 1740 c-29 -12 -30 -50 -3 -75 24 -22 47 -14 60 21 20 53 -4 75
-57 54z"/>
<path d="M9072 1734 c-40 -28 -22 -74 30 -74 48 0 60 57 17 80 -23 13 -21 13
-47 -6z"/>
<path d="M1199 1724 c-16 -20 -1 -48 29 -52 27 -4 49 33 31 54 -15 19 -43 18
-60 -2z"/>
<path d="M2890 1725 c-13 -16 -6 -47 15 -65 31 -26 79 18 67 62 -5 22 -64 25
-82 3z"/>
<path d="M3120 1733 c-35 -14 -32 -58 6 -75 31 -14 54 4 54 42 0 34 -23 47
-60 33z"/>
<path d="M7527 1722 c-23 -26 -21 -39 8 -58 34 -22 75 -6 75 29 0 46 -52 64
-83 29z"/>
<path d="M7773 1730 c-25 -10 -28 -22 -13 -51 13 -24 75 -27 84 -3 9 24 8 31
-10 48 -17 18 -29 19 -61 6z"/>
<path d="M7967 1733 c-4 -3 -7 -19 -7 -34 0 -32 30 -46 75 -35 27 7 35 42 13
64 -13 13 -70 17 -81 5z"/>
<path d="M8182 1728 c-29 -29 -5 -68 40 -68 32 0 43 18 34 55 -5 19 -13 25
-34 25 -15 0 -33 -5 -40 -12z"/>
<path d="M8414 1730 c-31 -12 -37 -37 -14 -60 24 -24 53 -26 74 -4 24 24 20
53 -10 64 -14 6 -26 10 -27 9 -1 0 -11 -4 -23 -9z"/>
<path d="M8628 1729 c-42 -25 -7 -85 45 -77 24 3 47 52 31 67 -15 16 -58 21
-76 10z"/>
<path d="M8842 1728 c-21 -21 -14 -57 14 -70 31 -14 57 -1 62 31 7 42 -46 69
-76 39z"/>
<path d="M3327 1716 c-9 -23 4 -54 25 -59 33 -9 48 3 48 39 0 32 -2 34 -34 34
-20 0 -36 -6 -39 -14z"/>
<path d="M5495 1721 c-8 -13 -2 -121 6 -121 4 0 9 29 11 65 3 60 -3 78 -17 56z"/>
<path d="M5589 1715 c-2 -17 3 -80 7 -84 6 -7 34 21 34 34 0 16 -39 64 -41 50z"/>
<path d="M5708 1608 c-12 -10 -14 -19 -7 -36 12 -32 33 -23 37 16 3 34 -5 39
-30 20z"/>
<path d="M5580 1527 c0 -23 4 -28 21 -25 15 2 23 11 25 30 2 24 -1 27 -22 26
-19 -2 -24 -8 -24 -31z"/>
<path d="M7992 1525 c-39 -17 -42 -48 -7 -71 33 -22 73 -11 81 21 11 46 -25
70 -74 50z"/>
<path d="M7538 1519 c-23 -13 -23 -42 0 -62 27 -25 60 -21 74 8 9 21 8 28 -7
45 -20 22 -41 25 -67 9z"/>
<path d="M7776 1511 c-34 -38 8 -86 54 -61 25 13 28 65 4 74 -26 10 -40 7 -58
-13z"/>
<path d="M8193 1523 c-22 -8 -15 -61 8 -74 30 -16 69 3 69 34 0 39 -35 58 -77
40z"/>
<path d="M8400 1516 c-15 -19 -9 -56 11 -69 20 -13 65 -2 73 18 3 8 0 26 -6
40 -13 29 -58 35 -78 11z"/>
<path d="M8622 1518 c-17 -17 -15 -42 6 -61 33 -30 72 -15 72 28 0 27 -18 45
-45 45 -12 0 -26 -5 -33 -12z"/>
<path d="M8837 1512 c-25 -28 -21 -48 14 -62 37 -16 62 -5 67 29 7 47 -49 69
-81 33z"/>
<path d="M9066 1514 c-23 -22 -20 -41 9 -60 23 -15 27 -15 50 0 27 18 32 45
13 64 -17 17 -54 15 -72 -4z"/>
<path d="M2219 1494 c-17 -21 -1 -54 26 -54 24 0 51 32 41 49 -10 15 -55 19
-67 5z"/>
<path d="M2467 1504 c-23 -23 7 -69 37 -58 25 10 17 58 -9 62 -12 2 -24 0 -28
-4z"/>
<path d="M2702 1478 c2 -28 8 -34 31 -36 25 -3 27 -1 27 32 0 33 -2 36 -31 36
-28 0 -30 -2 -27 -32z"/>
<path d="M2894 1495 c-10 -25 4 -45 30 -45 31 0 43 30 20 47 -24 17 -43 16
-50 -2z"/>
<path d="M5490 1479 c0 -17 4 -28 10 -24 6 3 10 17 10 31 0 13 -4 24 -10 24
-5 0 -10 -14 -10 -31z"/>
<path d="M1640 1476 c0 -15 7 -27 19 -31 28 -9 51 5 51 31 0 21 -5 24 -35 24
-30 0 -35 -3 -35 -24z"/>
<path d="M1930 1485 c-17 -20 -5 -45 20 -45 11 0 23 7 26 15 6 15 -11 45 -26
45 -4 0 -13 -7 -20 -15z"/>
<path d="M3104 1485 c-8 -19 3 -35 25 -35 18 0 35 33 23 44 -11 12 -43 6 -48
-9z"/>
<path d="M1432 1468 c7 -20 48 -23 48 -4 0 11 -9 16 -26 16 -16 0 -24 -5 -22
-12z"/>
<path d="M5700 1430 c0 -32 9 -37 28 -18 19 19 15 48 -8 48 -16 0 -20 -7 -20
-30z"/>
<path d="M5580 1390 c0 -32 1 -33 24 -24 24 9 21 54 -4 54 -16 0 -20 -7 -20
-30z"/>
<path d="M5480 1360 c0 -20 5 -30 15 -30 10 0 15 10 15 30 0 20 -5 30 -15 30
-10 0 -15 -10 -15 -30z"/>
<path d="M8637 1316 c-25 -20 -28 -45 -7 -66 27 -27 46 -25 65 4 12 19 14 30
6 44 -13 24 -46 34 -64 18z"/>
<path d="M7528 1295 c-15 -34 5 -57 46 -53 24 2 32 9 34 26 8 51 -58 74 -80
27z"/>
<path d="M7774 1295 c-21 -31 -5 -55 36 -55 34 0 47 35 23 62 -22 25 -40 23
-59 -7z"/>
<path d="M8202 1308 c-25 -25 -7 -68 28 -68 9 0 25 9 35 20 17 19 17 21 0 40
-20 23 -45 26 -63 8z"/>
<path d="M8398 1295 c-22 -48 39 -77 77 -35 17 19 17 21 0 40 -25 28 -63 26
-77 -5z"/>
<path d="M8840 1301 c-15 -29 -13 -39 15 -57 24 -16 27 -16 45 1 23 20 26 45
8 63 -18 18 -56 14 -68 -7z"/>
<path d="M9072 1308 c-28 -28 -3 -72 39 -66 30 4 47 33 33 56 -14 21 -55 27
-72 10z"/>
<path d="M5694 1295 c-9 -21 3 -45 21 -45 12 0 35 36 35 56 0 12 -51 2 -56
-11z"/>
<path d="M5587 1263 c-3 -15 -3 -30 0 -33 7 -7 34 32 30 44 -7 22 -25 15 -30
-11z"/>
<path d="M5494 1230 c-12 -38 -9 -49 7 -33 6 6 9 23 7 39 l-4 29 -10 -35z"/>
<path d="M5690 1150 c0 -25 4 -30 25 -30 21 0 25 5 25 30 0 25 -4 30 -25 30
-21 0 -25 -5 -25 -30z"/>
<path d="M5580 1138 c0 -30 15 -52 29 -44 6 4 11 20 11 37 0 22 -5 29 -20 29
-14 0 -20 -7 -20 -22z"/>
<path d="M5497 1123 c-11 -10 -8 -53 3 -53 6 0 10 14 10 30 0 31 -2 35 -13 23z"/>
<path d="M5702 1033 c-16 -3 -22 -9 -18 -20 3 -8 6 -19 6 -25 0 -5 10 -8 23
-6 16 2 23 11 25 31 2 15 0 26 -5 26 -4 -1 -18 -4 -31 -6z"/>
<path d="M5587 1004 c-16 -16 -6 -35 16 -32 12 2 22 10 22 18 0 16 -26 25 -38
14z"/>
<path d="M5477 973 c-15 -14 -7 -43 12 -43 17 0 31 18 31 41 0 10 -33 12 -43
2z"/>
<path d="M5690 881 c0 -11 8 -27 17 -37 16 -15 17 -15 24 2 15 38 10 54 -16
54 -18 0 -25 -5 -25 -19z"/>
<path d="M5590 840 c0 -11 5 -20 10 -20 6 0 10 9 10 20 0 11 -4 20 -10 20 -5
0 -10 -9 -10 -20z"/>
<path d="M5475 830 c-8 -13 3 -50 15 -50 10 0 30 33 30 49 0 14 -37 14 -45 1z"/>
<path d="M4760 673 c-42 -38 -49 -88 -20 -126 30 -38 65 -50 106 -37 41 14 64
49 64 99 0 32 -6 44 -31 65 -40 34 -80 34 -119 -1z"/>
</g>
</svg>
